<?xml version="1.0" standalone="no"?>
<!DOCTYPE svg PUBLIC "-//W3C//DTD SVG 20010904//EN"
 "http://www.w3.org/TR/2001/REC-SVG-20010904/DTD/svg10.dtd">
<svg version="1.0" xmlns="http://www.w3.org/2000/svg"
 width="159.000000pt" height="214.000000pt" viewBox="0 0 159.000000 214.000000"
 preserveAspectRatio="xMidYMid meet">

<g transform="translate(0.000000,214.000000) scale(0.100000,-0.100000)"
fill="#000000" stroke="none">
<path d="M1210 2111 c-19 -4 -49 -15 -66 -24 -30 -15 -32 -15 -49 3 -22 24
-34 18 -28 -13 4 -20 0 -25 -25 -30 -35 -7 -87 -49 -106 -86 -8 -14 -17 -47
-21 -73 -10 -65 27 -146 83 -183 31 -20 41 -34 46 -63 16 -98 1 -212 -39 -299
-27 -59 -40 -61 -50 -10 -4 17 -16 42 -27 54 -11 12 -34 55 -52 95 -50 115
-127 250 -159 281 -40 37 -84 36 -121 -2 -23 -24 -29 -41 -33 -93 -4 -53 1
-80 30 -168 34 -100 35 -106 19 -132 -15 -26 -15 -30 5 -72 12 -24 19 -47 16
-50 -4 -3 -32 -6 -63 -6 -50 0 -71 -7 -164 -56 l-107 -56 -37 19 c-20 11 -52
28 -69 39 -48 28 -69 12 -66 -52 6 -162 22 -293 40 -341 67 -172 269 -365 416
-398 l52 -11 6 -170 c3 -93 6 -170 7 -172 1 -2 7 0 13 3 6 4 8 22 4 46 -9 50
5 50 45 -1 17 -22 36 -37 41 -34 6 3 -6 25 -26 49 -19 24 -35 46 -35 49 0 2
18 6 40 8 58 4 54 22 -5 26 -27 2 -53 9 -57 15 -10 15 -10 149 0 163 4 6 54
14 112 18 58 4 120 9 138 12 l32 6 0 -71 c0 -69 2 -74 41 -126 23 -30 45 -52
50 -49 12 7 13 7 -21 49 -35 44 -33 53 9 35 16 -6 38 -10 48 -8 14 3 11 8 -15
22 -32 16 -33 18 -15 31 27 20 10 28 -33 16 -21 -6 -39 -9 -40 -8 -2 2 0 28 3
59 l6 55 51 22 c28 11 78 39 111 61 33 22 66 40 72 40 7 0 20 -14 28 -30 22
-42 71 -70 121 -70 35 0 47 6 72 34 43 49 57 99 55 191 -1 87 -39 250 -92 394
-38 105 -50 251 -31 384 6 48 13 87 15 87 2 0 27 -11 57 -25 64 -30 94 -31
108 -5 12 23 14 20 -77 172 -36 60 -61 112 -57 121 3 8 0 48 -6 88 -28 192
-31 199 -79 223 -37 19 -80 25 -121 17z m111 -38 c38 -23 43 -40 15 -55 -13
-7 -41 -26 -63 -41 -22 -15 -63 -36 -92 -47 -78 -28 -147 -76 -165 -114 -20
-42 -20 -56 -2 -56 7 0 16 -9 19 -19 4 -15 0 -19 -15 -16 -31 6 -49 26 -71 74
-21 48 -17 115 10 161 18 31 72 70 96 70 20 0 23 -16 5 -23 -7 -2 -10 -8 -5
-12 4 -5 25 10 47 33 59 61 159 81 221 45z m42 -114 c37 -51 45 -179 10 -179
-32 0 -70 -31 -91 -74 -33 -66 -27 -94 31 -136 l49 -35 -9 -55 c-8 -58 -9
-186 -2 -487 3 -137 1 -185 -8 -194 -11 -11 -13 -10 -13 1 0 7 -3 10 -6 7 -4
-4 -2 -12 3 -19 13 -16 -2 -62 -17 -53 -6 3 -7 -1 -4 -10 8 -19 -14 -47 -30
-38 -7 4 -7 2 1 -7 9 -10 6 -20 -14 -47 -20 -26 -28 -31 -35 -21 -6 9 -7 6 -3
-9 5 -18 -4 -28 -53 -62 -101 -68 -134 -84 -143 -69 -6 9 -9 10 -9 1 0 -33
-152 -67 -275 -61 l-70 3 -3 35 c-5 53 -22 62 -22 12 0 -53 -15 -60 -78 -37
-237 87 -427 334 -414 539 2 28 3 29 16 10 8 -10 2 20 -15 67 -23 69 -27 92
-19 113 13 34 25 33 87 -10 64 -44 87 -42 187 16 84 49 127 62 190 58 47 -3
50 -5 72 -48 25 -47 34 -170 14 -170 -5 0 -10 -4 -10 -10 0 -25 83 -9 162 31
70 35 88 40 127 36 33 -4 52 -12 69 -33 74 -85 -54 -326 -204 -384 -45 -18
-78 -23 -139 -22 -95 1 -152 19 -212 68 -24 20 -47 33 -50 30 -12 -11 51 -66
107 -94 49 -24 66 -27 163 -27 l107 0 0 -28 c0 -43 40 -77 90 -77 38 0 48 6
121 78 l79 77 -25 91 c-23 85 -24 94 -10 127 8 20 15 62 15 93 0 53 -3 59 -38
93 -35 33 -40 44 -51 114 l-13 77 36 73 c49 98 58 161 50 352 l-7 161 38 29
c21 15 57 35 79 43 23 8 64 23 91 33 28 10 44 18 36 18 -11 1 -10 6 4 21 22
24 32 22 58 -11z m-647 -225 c19 -20 32 -40 29 -45 -4 -5 -24 -9 -45 -9 -21 0
-42 -4 -45 -10 -4 -6 8 -10 28 -10 51 0 101 -25 116 -57 13 -27 32 -83 28 -83
-1 0 -20 7 -42 16 -38 14 -38 15 -7 10 18 -3 31 -2 28 3 -9 14 -68 21 -106 12
-38 -9 -33 -13 40 -32 74 -19 116 -45 134 -84 21 -44 17 -51 -25 -36 -18 6
-50 11 -72 11 -33 0 -38 -2 -28 -14 7 -8 26 -18 42 -21 33 -8 49 -25 22 -25
-10 0 -35 -9 -55 -19 -38 -21 -48 -19 -48 9 0 9 -17 59 -38 111 -41 101 -60
163 -65 219 -3 30 -4 28 -5 -10 -2 -55 18 -136 58 -237 34 -84 38 -112 16 -94
-14 12 -83 215 -96 285 -9 46 3 94 30 124 31 33 67 28 106 -14z m751 -99 c39
-65 69 -123 67 -127 -7 -12 -52 -10 -77 3 -12 7 -45 34 -74 60 -28 27 -58 49
-65 49 -7 -1 -3 -9 11 -21 35 -29 21 -32 -17 -3 -18 14 -32 34 -32 45 0 47 65
123 99 117 9 -2 48 -57 88 -123z m-611 -245 c15 -6 25 -13 22 -15 -3 -3 -20 1
-39 9 -38 17 -25 21 17 6z m93 -119 c12 -49 24 -110 27 -135 6 -44 6 -46 -19
-46 -14 0 -58 -15 -97 -34 -39 -19 -79 -32 -88 -29 -9 4 -13 2 -9 -4 4 -6 -4
-13 -19 -16 -26 -5 -26 -4 -21 40 4 38 -2 61 -36 137 -22 50 -46 101 -54 113
-15 22 -5 37 19 28 13 -5 48 -79 48 -102 0 -7 4 -15 10 -18 12 -8 1 55 -13 73
-5 7 -7 16 -3 19 10 11 22 -12 57 -112 18 -49 36 -94 41 -100 6 -6 7 -4 4 5
-3 8 -16 51 -30 95 -13 44 -27 88 -31 97 -5 13 0 21 21 29 24 9 139 43 166 48
3 0 16 -39 27 -88z m467 -354 c18 -60 15 -78 -11 -57 -12 10 -15 10 -15 -3 0
-10 8 -14 25 -13 34 4 46 -34 52 -165 5 -87 2 -111 -12 -140 -29 -58 -55 -79
-95 -79 -41 0 -70 17 -100 60 l-21 29 24 38 c23 36 72 87 52 54 -5 -10 -4 -12
4 -7 6 4 10 13 9 19 -5 23 26 77 41 72 11 -4 11 -2 2 8 -9 11 -8 32 4 86 8 40
15 96 16 124 0 29 2 48 4 42 2 -5 11 -36 21 -68z m-351 -219 c7 -40 6 -42 -61
-109 -52 -52 -71 -66 -81 -57 -7 6 -13 18 -13 27 -1 9 -7 27 -16 41 -14 24
-15 24 -9 -15 6 -39 5 -40 -25 -40 -28 0 -30 3 -30 35 l1 35 14 -25 14 -25 1
27 c0 20 8 32 29 42 16 9 32 12 36 8 3 -4 5 -2 3 4 -3 9 20 37 86 107 18 19
20 19 32 3 7 -10 16 -36 19 -58z"/>
<path d="M1295 2060 c3 -5 8 -10 11 -10 2 0 4 5 4 10 0 6 -5 10 -11 10 -5 0
-7 -4 -4 -10z"/>
<path d="M1142 1778 c6 -18 28 -21 28 -4 0 9 -7 16 -16 16 -9 0 -14 -5 -12
-12z"/>
<path d="M917 780 c-26 -44 -81 -82 -156 -107 -53 -17 -60 -22 -35 -22 77 -2
185 65 212 132 15 36 1 35 -21 -3z"/>
</g>
</svg>
